<svg width="28" height="28" viewBox="0 0 28 28" fill="none" xmlns="http://www.w3.org/2000/svg">
<path d="M16.668 0.667969H3.33464C1.85464 0.667969 0.667969 1.86797 0.667969 3.33464V16.668H3.33464V3.33464H16.668V0.667969ZM22.0013 6.0013H8.66797C7.18797 6.0013 6.0013 7.2013 6.0013 8.66797V22.0013H8.66797V8.66797H22.0013V6.0013ZM24.668 11.3346H14.0013C12.5213 11.3346 11.3346 12.5346 11.3346 14.0013V24.668C11.3346 26.1346 12.5213 27.3346 14.0013 27.3346H24.668C26.1346 27.3346 27.3346 26.1346 27.3346 24.668V14.0013C27.3346 12.5346 26.1346 11.3346 24.668 11.3346Z" fill="black"/>
</svg>
