<svg width="80" height="80" viewBox="0 0 80 80" fill="none" xmlns="http://www.w3.org/2000/svg">
<g clip-path="url(#clip0_463_2228)">
<path d="M40 80C39.6024 80 39.2065 79.993 38.8111 79.9815L46.9859 57.5152H58.2359C60.2105 57.5152 62.3781 55.9972 63.0535 54.1426L71.922 29.7822C73.3731 25.7939 71.0887 22.5309 66.8448 22.5309H51.2374L38.1426 58.5154H38.1376L30.7135 78.9141C13.1007 74.727 0 58.8941 0 40C0 21.6509 12.3556 6.18889 29.2006 1.47667L21.5404 22.5309H21.5381L8.8037 57.5152L17.2809 57.5159L28.1106 27.7881H34.4818L23.6522 57.5159L32.1263 57.5174L42.2185 29.7822C43.6704 25.7939 41.3857 22.5309 37.1457 22.5309H30.0198L38.2018 0.042037C38.7981 0.0155556 39.397 0 39.9996 0C62.0911 0 79.9996 17.9085 79.9996 40C79.9996 62.0913 62.0911 80 39.9996 80H40ZM64.2022 27.7667H57.8328L48.913 52.2404H55.2826L64.2022 27.7667Z" fill="black"/>
</g>
<defs>
<clipPath id="clip0_463_2228">
<rect width="80" height="80" fill="white"/>
</clipPath>
</defs>
</svg>
