<svg width="58" height="33" viewBox="0 0 58 33" fill="none" xmlns="http://www.w3.org/2000/svg">
<path d="M0.515625 0.867023H17.1671C19.0022 0.867023 20.6267 1.23014 22.0406 1.95638C23.4546 2.65235 24.5526 3.66606 25.3348 4.9975C26.117 6.29867 26.5081 7.79653 26.5081 9.49108V13.7123C26.5081 15.4674 26.102 17.0258 25.2897 18.3875C24.4774 19.7189 23.3343 20.7629 21.8601 21.5194C20.4161 22.2456 18.7314 22.6087 16.806 22.6087H6.74299V32.6399H0.515625V0.867023ZM16.7158 17.162C17.7687 17.162 18.6261 16.8291 19.288 16.1634C19.9498 15.4674 20.2807 14.5596 20.2807 13.44V9.76342C20.2807 8.70433 19.9799 7.87218 19.3782 7.26699C18.8066 6.63153 18.0395 6.3138 17.0768 6.3138H6.74299V17.162H16.7158Z" fill="#FBF503"/>
<path d="M40.6931 33.003C38.3767 33.003 36.331 32.5037 34.556 31.5051C32.8111 30.5066 31.4574 29.0995 30.4947 27.2839C29.532 25.438 29.0507 23.3198 29.0507 20.9293V12.5776C29.0507 10.1871 29.532 8.084 30.4947 6.26841C31.4875 4.42256 32.8713 3.00034 34.6463 2.00177C36.4513 1.00319 38.5271 0.503906 40.8736 0.503906H45.657C47.9133 0.503906 49.8988 0.988063 51.6136 1.95638C53.3284 2.92469 54.652 4.28639 55.5846 6.04146C56.5473 7.76627 57.0287 9.77855 57.0287 12.0783H50.8916C50.8916 10.2627 50.4102 8.81024 49.4475 7.72088C48.4849 6.60127 47.2213 6.04146 45.657 6.04146H40.8736C39.1889 6.04146 37.8352 6.67692 36.8123 7.94783C35.7894 9.18849 35.278 10.8225 35.278 12.8499V20.657C35.278 22.6844 35.7744 24.3335 36.7672 25.6045C37.7599 26.8451 39.0686 27.4654 40.6931 27.4654H45.5667C47.1612 27.4654 48.4548 26.8451 49.4475 25.6045C50.4704 24.3638 50.9818 22.7298 50.9818 20.7024H57.1189C57.1189 23.1534 56.6376 25.317 55.6749 27.1931C54.7122 29.039 53.3584 30.4763 51.6136 31.5051C49.8687 32.5037 47.8531 33.003 45.5667 33.003H40.6931Z" fill="#FBF503"/>
</svg>
