<svg width="178" height="36" viewBox="0 0 178 36" fill="none" xmlns="http://www.w3.org/2000/svg">
<g clip-path="url(#clip0_463_2011)">
<path d="M113.879 28.7083L107.085 19.5571L100.298 28.7083H97.5016L105.67 17.6518L98.21 7.60156H101.006L107.085 15.7982L113.163 7.60156H115.957L108.503 17.6499L116.673 28.7083H113.879ZM60.935 28.7046L52.7575 17.6499L60.2173 7.60156H57.4213L51.3408 15.8001L45.2659 7.60156H42.4773L49.9334 17.6499L41.7578 28.7046H44.5576L51.3445 19.5571L58.137 28.7046H60.935Z" fill="#FBF503"/>
<path d="M76.4853 18.4507C76.064 18.0943 75.5947 17.7979 75.091 17.5701C75.8639 17.1625 76.5104 16.5537 76.961 15.809C77.4115 15.0643 77.6492 14.2119 77.6484 13.3432C77.6484 11.9928 77.147 7.6013 70.7348 7.6013H62.0987V16.7007H59.2225C58.8497 17.1835 58.0016 18.3434 57.6791 18.8188H62.0987V28.7062L70.7366 28.7081C75.4153 28.7081 78.3214 26.3514 78.3214 22.5462C78.3214 20.8851 77.6895 19.4736 76.4853 18.4507ZM64.4865 9.80447H70.7366C72.4273 9.80447 75.2606 10.2225 75.2606 13.1582C75.2606 15.3781 73.611 16.7007 70.7366 16.7007H64.4865V9.80447ZM70.7348 26.5067H64.4847V18.8243H70.7348C73.1039 18.8243 75.9391 19.4736 75.9391 22.5C75.9391 25.9851 72.6789 26.5067 70.7348 26.5067ZM89.5559 7.11664C83.5817 7.11664 79.4062 11.6506 79.4062 18.1436C79.4062 24.6458 83.5817 29.1761 89.5559 29.1761C95.5245 29.1761 99.6888 24.6458 99.6888 18.1436C99.6888 11.6506 95.5245 7.11664 89.5559 7.11664ZM89.5559 26.9433C85.0039 26.9433 81.8146 23.3232 81.8146 18.1436C81.8146 12.964 85.0039 9.34571 89.5559 9.34571C94.1004 9.34571 97.2711 12.964 97.2711 18.1436C97.2711 23.3232 94.1004 26.9433 89.5559 26.9433ZM5.29795 5.34449L5.28117 5.35929V5.36114C3.60844 6.99549 2.2806 8.94421 1.37519 11.0935C0.469779 13.2428 0.00494315 15.5495 0.00782895 17.8791C0.00253229 21.7301 1.27609 25.4755 3.63151 28.536C3.65574 28.5656 3.69302 28.5823 3.72657 28.5656C3.75826 28.5471 3.76012 28.5083 3.74708 28.475C2.39565 24.3276 9.30375 14.2756 12.8734 10.0616C12.8846 10.0468 12.8995 10.0302 12.8995 10.0098C12.8995 9.98575 12.8827 9.96726 12.8659 9.95246C6.86187 4.02185 5.2588 5.37779 5.28117 5.35929L5.29795 5.34449ZM30.1753 5.34449L30.1921 5.35929V5.36114C31.8646 6.99552 33.1923 8.94429 34.0974 11.0936C35.0025 13.2429 35.4669 15.5496 35.4636 17.8791C35.4689 21.7301 34.1953 25.4755 31.8399 28.536C31.8175 28.5656 31.7784 28.5823 31.7448 28.5656C31.715 28.5471 31.7131 28.5083 31.7243 28.475C33.0757 24.3276 26.1732 14.2682 22.6055 10.0524C22.5924 10.0376 22.5794 10.0209 22.5794 10.0024C22.5794 9.97651 22.5943 9.95801 22.6129 9.94321C28.6188 4.0126 30.2107 5.37779 30.1902 5.35929L30.1753 5.34449ZM17.7366 0.285156C21.3137 0.285156 24.257 1.25818 26.971 2.86014C27.0046 2.87679 27.0139 2.91379 27.0009 2.94709C26.9878 2.97853 26.9505 2.98593 26.9151 2.97668C23.4834 2.24044 18.266 5.18355 17.7739 5.47768C17.7627 5.48508 17.7515 5.49248 17.7366 5.49248C17.7199 5.49248 17.7087 5.48508 17.6975 5.47768C16.3889 4.73219 11.5667 2.2238 8.53018 2.99518C8.49663 3.00258 8.45935 2.99703 8.44443 2.96373C8.43807 2.9481 8.43758 2.93072 8.44306 2.91476C8.44853 2.8988 8.45961 2.88533 8.47426 2.87679C11.1883 1.25818 14.1689 0.285156 17.7366 0.285156ZM17.7366 14.3958C17.7571 14.3958 17.7795 14.4124 17.7925 14.4235C23.0976 18.4266 32.1773 28.3233 29.4055 31.1221L29.4092 31.1184L29.4073 31.1221H29.4036C26.1767 33.9329 22.0283 35.4803 17.7348 35.4748C13.4407 35.4799 9.29185 33.9326 6.06407 31.1221L6.06034 31.1184L6.06407 31.1221C3.29784 28.3233 12.3757 18.4266 17.6751 14.4235C17.69 14.4124 17.7143 14.3958 17.7366 14.3958ZM157.949 7.60315V24.9233L145.093 7.5902L142.985 7.5865V28.6748H145.352V11.7376L157.945 28.6877L160.318 28.6914V7.60315H157.949ZM130.695 7.11294C124.721 7.11294 120.544 11.6488 120.544 18.1399C120.544 24.6421 124.721 29.1798 130.695 29.1798C136.664 29.1798 140.828 24.6421 140.828 18.1399C140.828 11.6506 136.664 7.11294 130.695 7.11294ZM130.695 26.9433C126.143 26.9433 122.954 23.3232 122.954 18.1399C122.954 12.9622 126.143 9.34201 130.695 9.34201C135.24 9.34201 138.41 12.9622 138.41 18.1399C138.41 23.3232 135.24 26.9433 130.695 26.9433ZM165.357 26.627V18.8243H177.057V16.7599H165.357V9.65093H177.851V7.58835H162.976V28.6914H177.999V26.627H165.357Z" fill="#FBF503"/>
</g>
<defs>
<clipPath id="clip0_463_2011">
<rect width="178" height="35.1878" fill="white" transform="translate(0 0.285156)"/>
</clipPath>
</defs>
</svg>
