<svg width="173" height="74" viewBox="0 0 173 74" fill="none" xmlns="http://www.w3.org/2000/svg">
<g clip-path="url(#clip0_463_1732)">
<path d="M12.5312 65.9356C13.6019 64.784 14.8605 63.4834 15.612 62.8719C15.4007 62.8537 15.0672 62.8127 14.7051 62.7581C13.9218 63.4717 12.9226 64.5142 12.0274 65.4703C10.893 66.6941 9.95814 67.7632 9.95814 67.7684C9.94384 67.7775 9.93864 67.7964 9.92369 67.8094C9.18258 68.0135 7.92465 68.3592 7.08798 68.5874C5.8476 68.9312 4.73464 68.8467 4.73464 69.6578C4.73464 69.6578 3.4507 70.3461 3.75104 71.3723C3.75104 71.3723 6.32672 69.3153 8.53054 68.9669C8.53054 68.9669 7.18419 69.8424 7.30641 71.0292C7.30641 71.0292 9.12082 68.315 11.2395 69.9607C11.2395 69.9607 10.2955 68.6784 10.6888 67.9725C11.0275 67.5884 11.729 66.7994 12.5312 65.9356ZM8.45123 33.8881C8.34006 33.9375 8.22434 33.9557 8.10537 33.9557C7.72962 33.9557 7.37727 33.7282 7.2245 33.3558C7.21084 33.3253 7.19329 33.2889 7.18679 33.2505L6.90725 33.3435C7.14259 34.0285 7.84989 34.4035 8.48828 34.1825C8.64885 34.1247 8.79252 34.0396 8.90369 33.9304C9.25474 33.6002 9.39711 33.0634 9.22224 32.5532L8.58124 32.7722C8.62155 32.8664 8.64885 32.9685 8.64885 33.0777C8.64885 33.1725 8.6326 33.2583 8.5949 33.3402L8.88744 33.5183C8.83673 33.595 8.77432 33.6717 8.69956 33.7354C8.6326 33.7991 8.54679 33.8498 8.45123 33.8881ZM34.4075 31.8096L21.7392 34.8988V34.8851L21.7431 34.8988L46.4876 24.1944L26.0948 26.6914L37.0105 18.72L25.3134 23.2858L27.0797 19.7417L18.7123 25.7672L18.6415 25.6398L30.5044 0L11.2135 22.8269L11.0932 10.3814L4.01498 27.0164L3.64703 22.1126L0.159922 34.8734L0.166423 34.8695V34.8734C0.166423 34.8734 0.636441 34.5257 1.26833 34.3353C1.31904 34.3216 1.3704 34.3086 1.42111 34.2943C1.42761 34.2943 1.43411 34.2891 1.44126 34.2891C1.49262 34.2781 1.54332 34.2657 1.59403 34.2579C1.60053 34.2579 1.60833 34.2521 1.61808 34.2521C1.67009 34.243 1.72015 34.2358 1.77866 34.2326V34.2267C1.83326 34.2222 1.88657 34.2196 1.93793 34.215H1.97109C2.02244 34.2105 2.0777 34.2105 2.13556 34.215C2.13881 34.215 2.14206 34.215 2.15441 34.2196C2.20252 34.2196 2.24998 34.2222 2.30133 34.2326C2.31108 34.2358 2.31759 34.2358 2.32864 34.2358C2.38389 34.243 2.43395 34.2521 2.48531 34.2657C2.49896 34.2657 2.51261 34.2703 2.51911 34.2735C2.57242 34.2872 2.62703 34.3015 2.68554 34.3216C3.87846 34.7532 4.89326 34.3216 4.89326 34.3216C4.89326 34.3216 6.01662 35.0424 6.01662 35.6475H6.01402V35.6501C6.01402 35.6501 4.53571 35.7365 4.53571 35.082C4.53571 35.082 2.64523 34.4107 0 35.3908L5.57846 37.789C5.57521 37.763 5.28072 36.7251 5.60316 36.3637C5.70523 36.2389 5.88465 36.1954 6.16419 36.2903C6.26626 36.3267 6.34037 36.3176 6.38653 36.2727C6.82014 35.8256 4.71643 31.9416 4.71643 31.9416C4.71643 31.9416 2.82726 31.7583 1.19292 33.4676C1.08436 33.5807 0.97124 33.7022 0.866575 33.8355V33.8296V33.8355C1.03365 33.5443 1.56348 32.7 2.4476 31.9689C2.97743 31.5243 3.64053 31.1259 4.43039 30.901C4.64687 30.3817 4.37188 30.7197 4.8185 30.4467C4.82175 30.4467 4.82175 30.4422 4.82175 30.4422C5.03173 29.0728 5.80729 25.5456 8.48243 22.5286C8.66185 22.3284 8.84648 22.1263 9.04281 21.9346C9.04281 21.9346 8.35761 23.2234 8.35761 24.1196C8.37711 24.0969 9.05386 23.0817 9.98935 22.1529V22.149C9.98935 22.149 9.9783 22.164 9.96464 22.1893C9.79107 22.5611 8.51558 25.283 8.64885 26.0779C8.65275 26.085 8.65535 26.0896 8.65535 26.0974L11.2336 23.7355C11.2336 23.7355 11.2265 23.7401 11.2226 23.7427C11.1478 23.8447 8.80163 27.0164 8.57019 28.1037V28.1109L12.474 25.3233L12.4701 25.3279C12.4571 25.3506 11.9786 26.0181 11.7771 26.384C11.6341 26.6459 11.6133 26.7343 11.6133 26.7616L11.6198 26.7824L13.7215 25.8816C13.7215 25.8816 13.6305 25.9908 13.4836 26.15L12.7015 26.9449L12.5085 27.149L11.0867 28.5853L11.0601 28.6185L9.9783 29.7175L9.28465 30.424C9.28465 30.424 8.71711 31.0148 8.64885 31.3209C8.58124 31.6218 8.90109 31.8077 8.90109 31.8077H8.89719C9.18648 31.9689 9.41987 32.2184 9.55704 32.5168C9.63245 32.6974 9.67535 32.8937 9.67535 33.105C9.67535 33.5183 9.50568 33.8933 9.22224 34.1643C8.94465 34.4373 8.55329 34.6076 8.12228 34.6076C7.72962 34.6076 7.38117 34.4653 7.10878 34.2378C7.15624 34.3015 7.92465 35.2673 9.33535 34.5166L11.0789 33.246L11.1543 33.1868L12.9564 31.8694C13.3815 32.3712 13.7833 32.9756 14.1467 33.6613C13.076 34.6784 11.2499 36.443 9.42637 38.3727C8.34006 39.5198 7.2557 40.7326 6.32997 41.8777L6.98006 38.8237L7.03402 38.5715C7.03402 38.5715 7.03142 38.5715 7.03142 38.5761C7.02427 38.5793 7.02037 38.5793 7.01517 38.5839C7.01517 38.5865 7.00672 38.591 7.00672 38.591C7.00021 38.5943 6.99306 38.5943 6.98916 38.6047C6.98591 38.6047 6.98006 38.6073 6.98006 38.6144C6.97291 38.6183 6.96186 38.6229 6.95601 38.6274C6.95211 38.63 6.94951 38.6398 6.93846 38.6417C6.93195 38.6456 6.9222 38.6554 6.9131 38.658C6.90725 38.6671 6.9014 38.671 6.891 38.6781C6.88385 38.6853 6.87865 38.6931 6.86369 38.6963C6.85394 38.7067 6.84744 38.7165 6.83639 38.7217C6.82729 38.7295 6.81624 38.7418 6.80519 38.7438C6.79674 38.7574 6.78568 38.7691 6.77658 38.773C6.76163 38.7828 6.75188 38.7951 6.73823 38.8042C6.72782 38.8114 6.71807 38.8237 6.70897 38.8341C6.69467 38.8458 6.67712 38.8549 6.66737 38.8712C6.64981 38.8777 6.64331 38.8894 6.62641 38.8965C6.61601 38.9134 6.59911 38.9257 6.58155 38.9407C6.57245 38.9517 6.55425 38.9641 6.5445 38.9771C6.52695 38.9914 6.50679 39.0076 6.49314 39.0258C6.47949 39.0382 6.47039 39.0499 6.45219 39.059C6.43918 39.0791 6.41968 39.0986 6.39498 39.1168C6.38132 39.1279 6.37092 39.137 6.36117 39.15C6.35012 39.161 6.33712 39.1727 6.32282 39.1838C6.32282 39.1883 6.32022 39.1883 6.32022 39.1883C6.30071 39.2065 6.27926 39.2299 6.25911 39.252C6.24155 39.2631 6.2279 39.2813 6.21555 39.2975C6.19085 39.3157 6.17329 39.3365 6.15314 39.356C6.13624 39.3723 6.11869 39.3924 6.10243 39.4067C6.08878 39.4275 6.07123 39.4431 6.06213 39.4561C6.05498 39.4613 6.04588 39.471 6.03807 39.4788C6.03807 39.4814 6.03157 39.4866 6.02377 39.4938C6.01142 39.5068 6.00037 39.5178 5.98672 39.5321C5.96981 39.5523 5.95291 39.5685 5.93601 39.5887C5.93211 39.5958 5.92951 39.6017 5.92236 39.603C5.91521 39.6108 5.90936 39.614 5.90221 39.6218C5.8931 39.6381 5.8814 39.6498 5.86775 39.6615C5.8476 39.6907 5.82744 39.7128 5.80014 39.7362C5.78259 39.7616 5.76179 39.7798 5.74553 39.8058C5.72538 39.8311 5.69808 39.8584 5.67727 39.8818C5.65712 39.9071 5.63827 39.9273 5.61876 39.9526C5.59276 39.9812 5.57261 40.0111 5.5453 40.0397C5.52775 40.0625 5.50695 40.0859 5.48484 40.1132C5.46339 40.1444 5.43934 40.1717 5.41203 40.2081C5.39188 40.2263 5.37498 40.2542 5.35353 40.277C5.32817 40.3153 5.30022 40.3478 5.27291 40.3848C5.25211 40.4121 5.23521 40.4303 5.22156 40.4544C5.1884 40.4986 5.1533 40.5421 5.11949 40.5857C5.10909 40.6032 5.09154 40.6234 5.08244 40.6396C5.03498 40.7053 4.98427 40.7716 4.93877 40.8405L4.93291 40.8482C4.88741 40.9145 4.83995 40.9802 4.7964 41.0471C4.78534 41.0666 4.77104 41.0894 4.75674 41.1102C4.72553 41.1609 4.68913 41.2122 4.65467 41.2662C4.63647 41.2915 4.62347 41.3168 4.60332 41.3422C4.57276 41.3935 4.54156 41.439 4.50775 41.4897C4.4902 41.5209 4.47395 41.5482 4.4577 41.5762C4.43039 41.6275 4.39594 41.6795 4.36278 41.7302C4.34848 41.7614 4.32833 41.7913 4.31208 41.8238C4.28087 41.8751 4.25357 41.9284 4.21911 41.9798C4.20156 42.0071 4.18206 42.0435 4.1645 42.0747C4.1333 42.1345 4.10274 42.1858 4.07154 42.2404C4.05724 42.271 4.03839 42.3054 4.02213 42.3405C3.87846 42.6044 3.73934 42.8773 3.59632 43.1724V43.1776L2.87862 43.2978C3.02229 42.9287 3.16466 42.5933 3.31808 42.2755L2.14791 43.9224L3.31808 43.808C2.31759 46.1068 1.58363 49.1154 1.58363 53.3997L2.53602 52.7973C3.37594 57.5795 7.31941 59.6813 7.31941 59.6813L7.31291 59.6514C9.48487 61.0728 12.1295 62.0672 15.0438 62.4611C15.4482 62.5124 15.7758 62.5423 15.8499 62.5495C15.8525 62.5495 15.8525 62.5495 15.8525 62.5475C15.9052 62.554 15.952 62.5631 16.0027 62.5631C17.5811 62.7009 19.1141 62.6444 20.58 62.4299C20.5761 62.4858 20.5729 62.5423 20.5729 62.5989C20.5729 63.5458 21.0995 64.3251 21.7704 64.3895C20.3928 66.7325 19.2766 69.8443 19.2733 69.8586C19.22 70.0016 19.1102 70.2668 18.999 70.3461C18.6597 70.4228 18.6324 70.4397 18.2566 70.5567L18.2624 70.5521C18.1357 70.4286 17.0474 70.2252 15.939 70.6411C15.9416 70.6463 15.9416 70.6463 15.9481 70.6522C15.3208 70.9271 14.7103 71.4295 14.2871 72.2621C14.7376 71.8981 15.5782 71.3067 16.2628 71.3886C15.4521 71.85 14.0518 72.7313 13.8919 74C13.8919 74 18.7533 70.5898 21.1502 71.2189C21.1502 71.2189 20.8011 71.6154 21.6267 73.0881L22.0037 71.7181C22.4354 70.389 20.7705 70.1933 20.0704 70.1647C20.0736 70.155 20.0736 70.1505 20.0736 70.1485C20.0736 70.1485 20.151 69.9353 20.2868 69.5831C20.6997 68.5185 21.6605 66.1651 22.7123 64.485C22.7312 64.4499 22.7448 64.4122 22.7559 64.3778L22.5589 64.1067C22.5609 64.1067 22.7013 63.9533 22.7767 63.8403C22.9158 63.6199 23.1096 63.2462 23.1128 62.7516C23.1128 62.3636 23.0179 61.8742 22.7416 61.2659L23.3644 60.9773C23.3982 61.0566 23.4313 61.13 23.4645 61.2009C23.4736 61.2282 23.4827 61.2522 23.4905 61.273C23.51 61.3237 23.5302 61.3751 23.5471 61.4258C23.5575 61.4485 23.5666 61.4771 23.5757 61.5024C23.5926 61.5577 23.6082 61.609 23.6264 61.6597C23.6303 61.6753 23.64 61.6961 23.6439 61.7143L27.2019 60.64L26.4133 59.9907H26.4081L26.373 59.9556L26.3548 59.942L12.8979 47.6894C12.9018 47.6894 12.9057 47.6959 12.9057 47.6959L12.9018 47.6894C16.6431 49.5086 21.0071 51.6235 28.4098 55.0525C35.7025 58.4133 40.3201 60.3709 42.7021 61.3465C42.7222 61.3595 42.7444 61.3679 42.7606 61.3751H42.7645C43.1104 61.5174 43.4074 61.6363 43.6577 61.7384C44.1674 61.9379 44.6452 62.1225 44.6712 62.1342C44.7115 62.1114 44.7596 62.0991 44.8006 62.0776L17.5942 43.4226L34.4075 31.8096ZM15.5782 37.5596L11.5223 40.6442L14.4334 34.243V34.2378C14.8963 35.2192 15.285 36.341 15.5821 37.5596H15.5782ZM30.061 59.6287L30.1624 60.1155H30.1598L34.9003 62.9109L36.0997 63.6076L35.4438 61.9204C39.3548 63.0733 42.5396 63.1377 44.6576 62.14C44.6576 62.14 44.655 62.14 44.655 62.1413C40.9683 63.2306 31.8267 60.1512 30.061 59.6287Z" fill="#DC0D15"/>
<path d="M4.53636 35.0811C4.53636 35.7356 6.01467 35.6491 6.01467 35.6491C6.01467 35.0473 4.89326 34.3233 4.89326 34.3233C4.89326 34.3233 3.87911 34.7522 2.67969 34.3233C2.19927 34.1497 1.69675 34.2063 1.26898 34.3369C0.700802 34.7158 0 35.3944 0 35.3944C2.64588 34.4104 4.53636 35.0811 4.53636 35.0811ZM14.434 34.2427L11.5229 40.6432L15.5789 37.5586C15.2857 36.34 14.8911 35.2234 14.434 34.2427ZM44.6784 62.1339C44.6784 62.1339 35.5667 58.7159 12.8985 47.6885L26.4081 59.9904H26.414C27.6238 59.488 28.4754 59.1312 30.1605 60.1152L30.061 59.6277C31.8234 60.1503 40.9995 63.2453 44.6784 62.1339ZM22.7416 61.2649C23.0185 61.8732 23.1135 62.3633 23.1135 62.7507C23.1096 63.2453 22.9165 63.6196 22.7773 63.8399C22.7019 63.953 22.5615 64.1058 22.5596 64.1058L22.9639 64.6602C23.0075 64.6322 23.7973 64.0356 23.7973 62.7507C23.7973 62.2509 23.6777 61.6594 23.3624 60.9763L22.7416 61.2649ZM14.6089 62.7409C15.2519 62.8429 15.8376 62.8969 15.8376 62.8969L15.8675 62.557C15.8675 62.557 15.2941 62.5063 14.6648 62.4042L14.6089 62.7409ZM14.1474 33.661C13.7839 32.9753 13.3822 32.3709 12.957 31.8691L9.336 34.5202C7.87394 35.2923 7.10293 34.2355 7.10293 34.2355C7.37077 34.465 7.72767 34.6066 8.12293 34.6066C8.98235 34.6066 9.67275 33.9294 9.67535 33.1046C9.67535 32.896 9.6331 32.6965 9.55443 32.521C9.42052 32.2175 9.18323 31.9679 8.89524 31.8087L8.90174 31.8067C8.90174 31.8067 8.58189 31.6215 8.6495 31.3199C8.71776 31.0138 9.28465 30.423 9.28465 30.423L9.28139 30.4256L11.0607 28.6175L11.0874 28.585L12.7022 26.9439L13.4843 26.1491C13.6312 25.9898 13.7183 25.8852 13.7183 25.8852L11.6139 26.7821C11.6139 26.7821 11.5736 26.7594 11.7778 26.383C11.9812 26.01 12.474 25.3224 12.474 25.3224L8.56759 28.1106C8.79317 27.0161 11.2336 23.7391 11.2336 23.7391L8.65535 26.0984C8.48243 25.2762 9.99 22.152 9.99 22.152C9.04086 23.0924 8.35761 24.1245 8.35761 24.1245C8.35761 23.2231 9.04086 21.9336 9.04086 21.9336C5.91001 25.065 5.04083 28.9834 4.8224 30.4412C4.36863 30.7246 4.64752 30.3795 4.43104 30.9001C2.32864 31.4935 1.13571 33.3685 0.864626 33.8345C2.56982 31.7307 4.71643 31.9406 4.71643 31.9406C4.71643 31.9406 7.27975 36.676 6.16484 36.2939C5.04083 35.9046 5.57911 37.7881 5.57911 37.7881L3.4819 36.884C3.82775 37.5684 4.5084 39.1802 4.1177 40.857C3.68603 41.5128 3.25762 42.3122 2.87862 43.2975L3.59632 43.1773C3.73674 42.877 3.87586 42.6034 4.01563 42.3415C4.03578 42.3077 4.05724 42.2752 4.07219 42.242C4.10014 42.1868 4.13135 42.1335 4.16515 42.0783C4.18206 42.0458 4.20221 42.01 4.21976 41.9788C4.24967 41.9281 4.27567 41.8768 4.30882 41.8261C4.32898 41.7903 4.34913 41.7604 4.36343 41.7292C4.39594 41.6785 4.42324 41.6266 4.45835 41.5791C4.4746 41.5473 4.49085 41.52 4.5084 41.4946C4.53896 41.4433 4.57276 41.3926 4.60397 41.3432C4.61827 41.3159 4.63322 41.2905 4.65467 41.2652C4.68393 41.2138 4.72033 41.1632 4.75674 41.1125C4.77169 41.0884 4.78079 41.0657 4.79705 41.0468C4.8406 40.9792 4.88806 40.9136 4.93357 40.8499C4.93357 40.8473 4.93877 40.8427 4.93877 40.8401C4.98427 40.7706 5.03173 40.7082 5.07724 40.6432C5.09219 40.6276 5.10649 40.6062 5.12014 40.588C5.15395 40.5412 5.18515 40.5002 5.21831 40.4541C5.23586 40.4294 5.25211 40.4112 5.27291 40.3884C5.29762 40.352 5.32427 40.3143 5.35158 40.2766C5.37498 40.2539 5.39253 40.2311 5.40878 40.2071C5.43414 40.1746 5.46014 40.1434 5.48549 40.1122C5.50435 40.0895 5.5284 40.0667 5.5453 40.0414C5.57261 40.0102 5.59276 39.9835 5.61616 39.9549C5.63827 39.9322 5.65517 39.9088 5.67467 39.886C5.69873 39.8574 5.72148 39.8301 5.74618 39.8067C5.76243 39.784 5.78324 39.7625 5.80079 39.7411C5.82354 39.7119 5.8476 39.6898 5.8645 39.6644C5.8853 39.6462 5.90221 39.6209 5.92236 39.6027C5.94446 39.5799 5.96331 39.5591 5.98737 39.5351C6.00427 39.5117 6.02117 39.4987 6.03807 39.4779C6.06278 39.4551 6.08098 39.435 6.10308 39.4096C6.11674 39.3966 6.13689 39.3758 6.15379 39.355C6.17004 39.3355 6.1915 39.3147 6.21555 39.2965C6.22855 39.2822 6.2422 39.2666 6.25976 39.2511C6.27926 39.2296 6.30136 39.2056 6.32022 39.1874C6.33777 39.1763 6.34687 39.1601 6.36117 39.151C6.39498 39.1165 6.42228 39.0879 6.45284 39.058C6.47104 39.0489 6.48014 39.0372 6.49379 39.0255C6.50744 39.0073 6.5276 38.9911 6.5445 38.9761C6.55425 38.9631 6.57245 38.9508 6.5822 38.9397C6.59911 38.9254 6.61666 38.9124 6.62641 38.8962C6.64396 38.889 6.65046 38.8767 6.66737 38.8708C6.67777 38.8539 6.69467 38.8448 6.70962 38.8331C6.71872 38.8234 6.72848 38.8104 6.73888 38.8032C6.75253 38.7941 6.76228 38.7824 6.77658 38.7721C6.78568 38.7688 6.79673 38.7565 6.80584 38.7428C6.81689 38.7415 6.82794 38.7285 6.83704 38.7214C6.84809 38.7155 6.85394 38.7058 6.86434 38.696C6.87865 38.6921 6.8845 38.685 6.89165 38.6778C6.9014 38.67 6.9079 38.6668 6.91375 38.6577C6.9222 38.6544 6.9326 38.6447 6.93911 38.6414C6.94951 38.6395 6.95276 38.6291 6.95601 38.6265C6.96251 38.6219 6.97356 38.6174 6.98071 38.6135C6.98071 38.6063 6.98656 38.6037 6.98981 38.6037C6.99371 38.594 7.00086 38.594 7.00737 38.5901C7.00737 38.5901 7.01517 38.5855 7.01517 38.5829C7.02102 38.5784 7.02427 38.5784 7.03207 38.5758C7.03207 38.5712 7.03467 38.5712 7.03467 38.5712L6.98071 38.8234L6.33062 41.8768C8.79577 38.8234 12.4357 35.2806 14.1474 33.661ZM6.9053 33.3432L7.18744 33.2502C7.19394 33.2886 7.2115 33.325 7.22515 33.3549C7.37792 33.7273 7.73027 33.9548 8.10538 33.9548C8.22499 33.9548 8.34071 33.9366 8.45187 33.8872C8.6391 33.8111 8.78862 33.6759 8.88809 33.518L8.59555 33.3432C8.6326 33.2626 8.6495 33.1716 8.6495 33.0773C8.6495 32.9682 8.6222 32.8661 8.58189 32.7712L9.22289 32.5528C9.45497 33.2346 9.12862 33.9639 8.48633 34.1842C7.84794 34.4026 7.13933 34.0314 6.9053 33.3432Z" fill="black"/>
<path d="M66.2159 38.4731C65.7836 38.3575 65.1374 38.2938 64.2968 38.2938H62.4714V48.6075L62.6651 48.4724L64.1662 47.4143L64.2195 47.3753V44.4571H64.7929C65.8519 44.4571 66.7113 44.1744 67.3425 43.6258C67.979 43.0675 68.2995 42.3097 68.2995 41.3673C68.2995 40.4847 67.9985 39.7457 67.4062 39.1634C67.0656 38.828 66.6677 38.5953 66.2159 38.4731ZM64.696 42.9707H64.2149V39.8088H64.7545C66.1334 39.8088 66.8277 40.3196 66.8277 41.3387C66.8277 42.4267 66.1138 42.9707 64.696 42.9707ZM75.9251 44.2094C76.5284 44.0392 77.0283 43.7129 77.4112 43.2326C77.8337 42.7081 78.0437 42.0666 78.0437 41.3387C78.0437 40.406 77.7031 39.6385 77.0328 39.0665C76.4308 38.557 75.444 38.2938 74.1035 38.2938H72.2241V48.6075L72.4133 48.4724L73.9195 47.4143L73.9728 47.3753V44.4226H74.0554L76.8632 48.4438L76.9308 48.5451L77.0328 48.4724L78.2375 47.6027L78.3395 47.53L78.2667 47.4286L75.9251 44.2094ZM73.9728 42.9707V42.868V39.9556V39.8088H74.5118C75.8913 39.8088 76.5862 40.3196 76.5862 41.3387C76.5862 42.4267 75.8724 42.9707 74.4533 42.9707H73.9728ZM49.7165 38.5999C49.1236 38.3965 48.3123 38.2938 47.3066 38.2938H45.0976V48.4912H47.2832C48.2974 48.4912 49.0937 48.3996 49.658 48.2098C50.2555 48.0206 50.8418 47.6807 51.3912 47.2004C52.4794 46.2333 53.0379 44.9569 53.0379 43.3925C53.0379 41.8437 52.5035 40.5666 51.4549 39.6105C50.9348 39.1387 50.3523 38.7994 49.7165 38.5999ZM50.2067 45.9428C49.8621 46.2522 49.4688 46.4862 49.0352 46.6265C48.6094 46.7676 48.0555 46.8358 47.3989 46.8358H46.8457V39.9556H47.3989C48.638 39.9556 49.5898 40.2514 50.2158 40.8298C50.9205 41.4849 51.2703 42.3435 51.2703 43.3925C51.2703 44.4369 50.9159 45.2909 50.2067 45.9428ZM38.7293 39.7652C39.3742 39.7652 40.0113 39.9498 40.6328 40.3144L40.7407 40.3768L40.7985 40.2702L41.5273 39.0132L41.5903 38.9067L41.4837 38.843C40.6328 38.3529 39.7389 38.1053 38.8352 38.1053C37.1652 38.1053 35.7863 38.7305 34.7371 39.9693C33.8822 40.9845 33.4492 42.1498 33.4492 43.4419C33.4492 44.8782 33.9693 46.1319 34.9847 47.151C36.0138 48.1617 37.2672 48.6758 38.7195 48.6758C39.6804 48.6758 40.6094 48.423 41.4837 47.9284L41.5455 47.8894V47.7873L41.5318 47.7594L40.7985 46.4907L40.7348 46.3802L40.6237 46.453C40.4202 46.5836 40.2193 46.6902 40.0353 46.7676C39.6804 46.9333 39.2442 47.0152 38.7332 47.0152C37.7535 47.0152 36.9129 46.6655 36.2323 45.9753C35.5568 45.287 35.2123 44.4272 35.2123 43.4217C35.2123 42.4026 35.5568 41.5278 36.2323 40.8298C36.9084 40.1194 37.7476 39.7652 38.7293 39.7652ZM153.68 39.9556L153.713 39.9205L155.097 38.5076L155.307 38.2938H149.395V48.4912H153.713L153.748 48.4574L155.103 47.0445L155.302 46.8358H151.143V43.6694H152.426L152.46 43.631L153.864 42.2233L154.072 42.0094H151.143V39.9556H153.68ZM123.764 39.9556H126.051V48.6075L126.246 48.4724L127.747 47.4143L127.801 47.3753V39.9556H130.084V38.2938H123.764V39.9556ZM86.7862 38.1092C85.3235 38.1092 84.0512 38.6298 83.0124 39.6541C81.9631 40.6784 81.4333 41.9223 81.4333 43.3489C81.4333 44.9705 82.0158 46.3061 83.1632 47.3116C84.2021 48.2156 85.3963 48.6758 86.7082 48.6758C88.1852 48.6758 89.4678 48.1565 90.5112 47.1374C91.5559 46.1222 92.0851 44.8691 92.0851 43.4081C92.0851 41.96 91.5605 40.6972 90.521 39.6677C89.4873 38.6337 88.2333 38.1092 86.7862 38.1092ZM89.2826 45.9721C88.5876 46.6655 87.7282 47.0152 86.7225 47.0152C85.8046 47.0152 84.9737 46.6701 84.2703 45.9857C83.5559 45.3065 83.1964 44.4272 83.1964 43.3645C83.1964 42.3591 83.5461 41.4986 84.2307 40.8142C84.9159 40.1194 85.7707 39.7652 86.7667 39.7652C87.7672 39.7652 88.6169 40.1194 89.293 40.8142C89.9775 41.5044 90.3221 42.3727 90.3221 43.3925C90.3221 44.3979 89.9723 45.2675 89.2826 45.9721ZM165.74 39.6105C165.22 39.1387 164.633 38.7994 163.996 38.5999C163.403 38.3965 162.597 38.2938 161.587 38.2938H159.377V48.4912H161.562C162.578 48.4912 163.38 48.3996 163.943 48.2098C164.54 48.0206 165.123 47.6807 165.672 47.2004C166.765 46.2333 167.319 44.9569 167.319 43.3925C167.319 41.8437 166.789 40.5666 165.74 39.6105ZM164.491 45.9428C164.142 46.2522 163.748 46.4862 163.321 46.6265C162.889 46.7676 162.339 46.8358 161.679 46.8358H161.126V39.9556H161.679C162.923 39.9556 163.87 40.2514 164.502 40.8298C165.201 41.4849 165.554 42.3435 165.554 43.3925C165.554 44.4369 165.201 45.2909 164.491 45.9428ZM142.673 44.2094C143.275 44.0392 143.775 43.7129 144.16 43.2326C144.582 42.7081 144.791 42.0666 144.791 41.3387C144.791 40.406 144.451 39.6385 143.781 39.0665C143.173 38.557 142.192 38.2938 140.851 38.2938H138.967V48.6075L139.162 48.4724L140.667 47.4143L140.721 47.3753V44.4226H140.803L143.605 48.4438L143.679 48.5451L143.781 48.4724L144.985 47.6027L145.081 47.53L145.014 47.4286L142.673 44.2094ZM140.721 42.9707V39.8088H141.254C142.639 39.8088 143.329 40.3196 143.329 41.3387C143.329 42.4267 142.62 42.9707 141.196 42.9707H140.721ZM118.984 38.3328L115.323 42.0861V38.182L115.128 38.323L113.627 39.3772L113.573 39.4155V48.6075L113.773 48.4724L115.273 47.4143L115.323 47.3753V44.3011L115.502 44.1256L118.998 48.4477L119.067 48.5347L119.164 48.4724L120.451 47.6027L120.563 47.5254L120.475 47.4175L116.751 42.931L121.17 38.5076L121.379 38.2938H119.024L118.984 38.3328ZM97.4718 39.3818L97.4178 39.4207V44.8542C97.4178 45.6763 97.3307 46.2522 97.161 46.5726C97.0102 46.8742 96.743 47.0152 96.3452 47.0152C96.0539 47.0152 95.738 46.9041 95.398 46.6759L95.2862 46.6031L95.2231 46.7136L94.4801 47.996L94.4216 48.1025L94.5236 48.1662C95.0866 48.5016 95.6983 48.6758 96.3452 48.6758C97.2098 48.6758 97.9132 48.3599 98.4378 47.749C98.7057 47.439 98.8955 47.0542 99.0119 46.6077C99.1185 46.2197 99.1763 45.6458 99.1763 44.8594V38.182L98.9774 38.323L97.4718 39.3818ZM108.221 39.9556L108.259 39.9205L109.644 38.5076L109.848 38.2938H103.942V48.4912H108.255L108.294 48.4574L109.644 47.0445L109.844 46.8358H105.691V43.6694H106.968L107.002 43.631L108.405 42.2233L108.614 42.0094H105.691V39.9556H108.221Z" fill="black"/>
<path d="M170.268 41.668C169.284 41.668 168.484 40.8679 168.484 39.8852C168.484 38.8928 169.284 38.1024 170.268 38.1024C171.26 38.1024 172.051 38.8928 172.051 39.8852C172.051 40.8679 171.26 41.668 170.268 41.668ZM170.268 38.3702C169.426 38.3702 168.753 39.0357 168.753 39.8852C168.753 40.7171 169.426 41.3982 170.268 41.3982C171.109 41.3982 171.781 40.7171 171.781 39.8852C171.781 39.0357 171.109 38.3702 170.268 38.3702ZM170.756 40.9101L170.226 40.1036H169.872V40.9101H169.586V38.8674H170.419C170.764 38.8674 171.083 39.1105 171.083 39.49C171.083 39.9437 170.679 40.0945 170.563 40.0945L171.109 40.9101H170.756ZM170.419 39.1202H169.872V39.8423H170.419C170.595 39.8423 170.788 39.7006 170.788 39.49C170.788 39.2626 170.595 39.1202 170.419 39.1202Z" fill="black"/>
</g>
<defs>
<clipPath id="clip0_463_1732">
<rect width="172.05" height="74" fill="white"/>
</clipPath>
</defs>
</svg>
