<svg width="132" height="132" viewBox="0 0 132 132" fill="none" xmlns="http://www.w3.org/2000/svg">
<path d="M65.1797 11.001L66 11.3701L66.8203 11.001L85.5547 2.57324L95.998 21.0967L96.4268 21.8574L97.2773 22.0596L117.256 26.8135L115.368 48.2881L115.295 49.1104L115.824 49.7441L129.395 66L115.824 82.2559L115.295 82.8896L115.368 83.7119L117.256 105.186L97.2773 109.94L96.4287 110.142L95.999 110.901L85.5566 129.364L66.8203 120.937L65.9971 120.565L65.1748 120.938L46.4395 129.423L36.001 110.964L35.5713 110.205L34.7227 110.003L14.7432 105.248L16.6328 83.7119L16.7041 82.8896L16.1758 82.2559L2.60254 65.9971L16.1777 49.6787L16.7041 49.0459L16.6328 48.2256L14.7432 26.6934L34.7178 21.998L35.5703 21.7979L36.001 21.0361L46.4424 2.57227L65.1797 11.001Z" stroke="#F8F200" stroke-width="4"/>
<path d="M54.3044 90.0821L48.4707 84.2484C46.1373 81.915 43.8038 81.915 41.4704 84.2484L36.061 89.6578L38.3945 91.9913L43.8038 86.5819C44.5817 85.8041 45.3524 85.797 46.1161 86.5607L46.1373 86.5819L42.0644 90.6548C40.1127 92.6064 40.0915 94.5368 42.0007 96.446C43.9806 98.4259 45.9464 98.4401 47.898 96.4885L54.3044 90.0821ZM44.3766 94.155C43.9948 93.7732 44.0018 93.3843 44.3978 92.9883L48.4707 88.9153L49.6375 90.0821L45.5645 94.155C45.1686 94.551 44.7726 94.551 44.3766 94.155ZM66.0777 78.3087L62.7472 81.6392L55.5772 81.8089L54.4104 82.9756L57.9106 86.4758L55.5772 88.8093L46.2434 79.4755L48.5768 77.142L52.077 80.6422L53.2437 79.4755L53.4346 72.2842L56.7439 68.9749L56.6378 78.4148L66.0777 78.3087ZM64.3889 61.3299L71.3893 68.3302L67.8891 71.8304C67.1113 72.6082 66.3335 72.6082 65.5557 71.8304L59.722 65.9968L57.3886 68.3302L63.2222 74.1639C65.5557 76.4973 67.8891 76.4973 70.2226 74.1639L74.8895 69.497L77.2229 71.8304L79.6624 69.3909L74.9955 64.724L73.7227 65.9968L66.7224 58.9964L64.3889 61.3299ZM87.305 57.0814L84.9715 59.4149L83.9745 58.4179C83.5785 60.4261 82.8149 61.9958 81.6835 63.1272C79.35 65.4607 77.0166 65.4607 74.6831 63.1272L68.6374 57.0814L70.9708 54.748L77.0166 60.7938C77.7803 61.5574 78.5581 61.5574 79.35 60.7938C80.7077 59.0401 81.1319 57.1309 80.6228 55.0662L75.6377 50.0811L77.9712 47.7476L87.305 57.0814ZM82.2138 49.4447C80.2339 47.4648 80.2198 45.499 82.1714 43.5474L88.5778 37.141L97.9116 46.4748L95.5781 48.8083L92.078 45.3081L91.0385 46.3476L91.6113 52.7752L88.5778 55.8087L88.005 49.3811C86.0534 51.3327 84.123 51.3539 82.2138 49.4447ZM88.5778 41.8079L84.5048 45.8809C84.1089 46.2769 84.123 46.687 84.5473 47.1112C84.9008 47.4648 85.2756 47.4436 85.6716 47.0476L89.7445 42.9747L88.5778 41.8079Z" fill="#F8F200"/>
</svg>
